<?xml version="1.0" encoding="utf-8"?>
<!-- Generator: Adobe Illustrator 24.3.0, SVG Export Plug-In . SVG Version: 6.00 Build 0)  -->
<svg version="1.1" id="Capa_1" xmlns="http://www.w3.org/2000/svg" xmlns:xlink="http://www.w3.org/1999/xlink" x="0px" y="0px"
	 viewBox="0 0 1230.1 867.1" style="enable-background:new 0 0 1230.1 867.1;" xml:space="preserve">
<style type="text/css">
	.st0{fill:#D47F55;stroke:#29ABE2;stroke-width:1.2803;stroke-miterlimit:10;}
	.st1{fill:url(#SVGID_1_);stroke:#FFFFFF;stroke-width:0.9618;stroke-miterlimit:10;}
	.st2{fill:url(#SVGID_2_);}
	.st3{fill:url(#SVGID_3_);}
	.st4{fill:url(#SVGID_4_);}
	.st5{fill:url(#SVGID_5_);}
	.st6{fill:url(#SVGID_6_);}
	.st7{fill:url(#SVGID_7_);}
	.st8{fill:url(#SVGID_8_);}
	.st9{fill:url(#SVGID_9_);}
	.st10{fill:url(#SVGID_10_);}
	.st11{fill:url(#SVGID_11_);}
	.st12{fill:url(#SVGID_12_);}
	.st13{fill:url(#SVGID_13_);}
	.st14{fill:url(#SVGID_14_);}
	.st15{fill:url(#SVGID_15_);}
	.st16{fill:url(#SVGID_16_);}
	.st17{fill:url(#SVGID_17_);}
	.st18{fill:url(#SVGID_18_);}
	.st19{fill:url(#SVGID_19_);}
	.st20{fill:url(#SVGID_20_);}
	.st21{fill:url(#SVGID_21_);}
	.st22{fill:url(#SVGID_22_);}
	.st23{fill:url(#SVGID_23_);}
	.st24{fill:url(#SVGID_24_);}
	.st25{fill:url(#SVGID_25_);}
	.st26{fill:url(#SVGID_26_);}
	.st27{opacity:0.54;enable-background:new    ;}
	.st28{fill:none;}
	.st29{opacity:0.53;enable-background:new    ;}
	.st30{fill:url(#SVGID_27_);}
	.st31{fill:url(#SVGID_28_);}
	.st32{fill:url(#SVGID_29_);}
	.st33{fill:url(#SVGID_30_);}
	.st34{fill:url(#SVGID_31_);}
	.st35{fill:url(#SVGID_32_);}
	.st36{fill:url(#SVGID_33_);}
	.st37{fill:url(#SVGID_34_);}
	.st38{fill:url(#SVGID_35_);}
	.st39{fill:#15375A;}
	.st40{font-family:'ArialRoundedMTBold';}
	.st41{font-size:153.1299px;}
	.st42{fill:none;stroke:#EFEEF8;stroke-width:2;stroke-miterlimit:10;}
</style>
<path class="st0" d="M1522.2,311.7"/>
<linearGradient id="SVGID_1_" gradientUnits="userSpaceOnUse" x1="-12.9" y1="881.3457" x2="-12.9" y2="881.3457" gradientTransform="matrix(1 0 0 -1 0 1348.6456)">
	<stop  offset="2.828752e-02" style="stop-color:#005894"/>
	<stop  offset="0.2101" style="stop-color:#0E5F9A"/>
	<stop  offset="0.6449" style="stop-color:#4EB2E7"/>
	<stop  offset="0.785" style="stop-color:#49B8EE"/>
	<stop  offset="0.8913" style="stop-color:#3FC6FF"/>
</linearGradient>
<path class="st1" d="M-12.9,467.3"/>
<linearGradient id="SVGID_2_" gradientUnits="userSpaceOnUse" x1="-102.4541" y1="823.8098" x2="-97.5372" y2="815.2935" gradientTransform="matrix(0.7618 -0.6629 -0.6847 -0.7868 1323.5776 1130.8718)">
	<stop  offset="2.828752e-02" style="stop-color:#005894"/>
	<stop  offset="0.2101" style="stop-color:#0E5F9A"/>
	<stop  offset="0.6449" style="stop-color:#4EB2E7"/>
	<stop  offset="0.785" style="stop-color:#49B8EE"/>
	<stop  offset="0.8913" style="stop-color:#3FC6FF"/>
</linearGradient>
<path class="st2" d="M693.2,547.6l-12.7,9.9l-1-1C684.2,553.7,688.8,550.8,693.2,547.6z"/>
<linearGradient id="SVGID_3_" gradientUnits="userSpaceOnUse" x1="-71.4303" y1="830.4756" x2="-56.0574" y2="803.8491" gradientTransform="matrix(0.7618 -0.6629 -0.6847 -0.7868 1323.5776 1130.8718)">
	<stop  offset="2.828752e-02" style="stop-color:#005894"/>
	<stop  offset="0.2101" style="stop-color:#0E5F9A"/>
	<stop  offset="0.6449" style="stop-color:#4EB2E7"/>
	<stop  offset="0.785" style="stop-color:#49B8EE"/>
	<stop  offset="0.8913" style="stop-color:#3FC6FF"/>
</linearGradient>
<path class="st3" d="M738,512.7c-0.4,0.3-0.5,0.5-0.9,0.8c-6.8,5.8-13.7,11.7-20.9,17.3c-7.3,5.7-14.7,11-22.1,16.2
	c-0.4,0.3-0.6,0.5-1,0.7L738,512.7z"/>
<linearGradient id="SVGID_4_" gradientUnits="userSpaceOnUse" x1="-102.4541" y1="823.8098" x2="-97.5372" y2="815.2935" gradientTransform="matrix(0.7618 -0.6629 -0.6847 -0.7868 1323.5776 1130.8718)">
	<stop  offset="2.828752e-02" style="stop-color:#005894"/>
	<stop  offset="0.2101" style="stop-color:#0E5F9A"/>
	<stop  offset="0.6449" style="stop-color:#4EB2E7"/>
	<stop  offset="0.785" style="stop-color:#49B8EE"/>
	<stop  offset="0.8913" style="stop-color:#3FC6FF"/>
</linearGradient>
<path class="st4" d="M693.2,547.6l-12.7,9.9l-1-1C684.2,553.7,688.8,550.8,693.2,547.6z"/>
<linearGradient id="SVGID_5_" gradientUnits="userSpaceOnUse" x1="-29.5509" y1="818.9459" x2="-25.2243" y2="811.4522" gradientTransform="matrix(0.7618 -0.6629 -0.6847 -0.7868 1323.5776 1130.8718)">
	<stop  offset="2.828752e-02" style="stop-color:#005894"/>
	<stop  offset="0.2101" style="stop-color:#0E5F9A"/>
	<stop  offset="0.6449" style="stop-color:#4EB2E7"/>
	<stop  offset="0.785" style="stop-color:#49B8EE"/>
	<stop  offset="0.8913" style="stop-color:#3FC6FF"/>
</linearGradient>
<path class="st5" d="M749.9,502l1,1l-12.7,9.9C742.1,509.3,746,505.7,749.9,502z"/>
<linearGradient id="SVGID_6_" gradientUnits="userSpaceOnUse" x1="516.61" y1="663.3722" x2="522.559" y2="653.0684" gradientTransform="matrix(1.2124 4.659471e-02 -4.659471e-02 -1.2254 115.8766 1312.0752)">
	<stop  offset="2.828752e-02" style="stop-color:#005894"/>
	<stop  offset="0.2101" style="stop-color:#0E5F9A"/>
	<stop  offset="0.6449" style="stop-color:#4EB2E7"/>
	<stop  offset="0.785" style="stop-color:#49B8EE"/>
	<stop  offset="0.8913" style="stop-color:#3FC6FF"/>
</linearGradient>
<path class="st6" d="M679.6,556.6l1,1l12.7-9.9C688.8,550.8,684.2,553.7,679.6,556.6z M693.2,547.6c0.4-0.3,0.7-0.4,1-0.7
	c7.4-5.2,14.8-10.5,22.1-16.2s14.2-11.5,20.9-17.3c0.4-0.3,0.6-0.5,0.9-0.8L693.2,547.6z M738,512.7l12.7-9.9l-1-1
	C746,505.7,742.1,509.3,738,512.7z"/>
<g>
	<g>
		<g>
			
				<linearGradient id="SVGID_7_" gradientUnits="userSpaceOnUse" x1="214.0268" y1="622.6238" x2="249.1388" y2="561.8079" gradientTransform="matrix(0.7618 -0.6629 -0.6847 -0.7868 1323.5776 1130.8718)">
				<stop  offset="2.828752e-02" style="stop-color:#005894"/>
				<stop  offset="0.2101" style="stop-color:#0E5F9A"/>
				<stop  offset="0.6449" style="stop-color:#4EB2E7"/>
				<stop  offset="0.785" style="stop-color:#49B8EE"/>
				<stop  offset="0.8913" style="stop-color:#3FC6FF"/>
			</linearGradient>
			<path class="st7" d="M1058.6,535.5c-9.6-2.8-10.3-9.4-1.7-14.4l57.8-34c8.5-5.1,14.8-1.8,13.7,7.3l-4.9,43.6
				c-1,9-9.7,14.2-19.1,11.1L1058.6,535.5z"/>
		</g>
	</g>
</g>
<linearGradient id="SVGID_8_" gradientUnits="userSpaceOnUse" x1="-34.5295" y1="904.8824" x2="-34.5295" y2="904.8824" gradientTransform="matrix(0.7618 -0.6629 -0.6847 -0.7868 1323.5776 1130.8718)">
	<stop  offset="2.828752e-02" style="stop-color:#005894"/>
	<stop  offset="0.2101" style="stop-color:#0E5F9A"/>
	<stop  offset="0.6449" style="stop-color:#4EB2E7"/>
	<stop  offset="0.785" style="stop-color:#49B8EE"/>
	<stop  offset="0.8913" style="stop-color:#3FC6FF"/>
</linearGradient>
<path class="st8" d="M677.7,441.8"/>
<linearGradient id="SVGID_9_" gradientUnits="userSpaceOnUse" x1="-38.4901" y1="978.7583" x2="-38.4901" y2="978.7583" gradientTransform="matrix(0.7618 -0.6629 -0.6847 -0.7868 1323.5776 1130.8718)">
	<stop  offset="2.828752e-02" style="stop-color:#005894"/>
	<stop  offset="0.2101" style="stop-color:#0E5F9A"/>
	<stop  offset="0.6449" style="stop-color:#4EB2E7"/>
	<stop  offset="0.785" style="stop-color:#49B8EE"/>
	<stop  offset="0.8913" style="stop-color:#3FC6FF"/>
</linearGradient>
<path class="st9" d="M624.1,386.3"/>
<g>
	<g>
		<g>
			<g>
				<g>
					<g>
						
							<linearGradient id="SVGID_10_" gradientUnits="userSpaceOnUse" x1="333.7" y1="342.0457" x2="333.7" y2="342.0457" gradientTransform="matrix(1 0 0 -1 0 868.6456)">
							<stop  offset="2.828752e-02" style="stop-color:#005894"/>
							<stop  offset="0.2101" style="stop-color:#0E5F9A"/>
							<stop  offset="0.6449" style="stop-color:#4EB2E7"/>
							<stop  offset="0.785" style="stop-color:#49B8EE"/>
							<stop  offset="0.8913" style="stop-color:#3FC6FF"/>
						</linearGradient>
						<path class="st10" d="M333.7,526.6"/>
						
							<linearGradient id="SVGID_11_" gradientUnits="userSpaceOnUse" x1="333.7" y1="342.0457" x2="333.7" y2="342.0457" gradientTransform="matrix(1 0 0 -1 0 868.6456)">
							<stop  offset="2.828752e-02" style="stop-color:#005894"/>
							<stop  offset="0.2101" style="stop-color:#0E5F9A"/>
							<stop  offset="0.6449" style="stop-color:#4EB2E7"/>
							<stop  offset="0.785" style="stop-color:#49B8EE"/>
							<stop  offset="0.8913" style="stop-color:#3FC6FF"/>
						</linearGradient>
						<path class="st11" d="M333.7,526.6"/>
					</g>
					<g>
						
							<linearGradient id="SVGID_12_" gradientUnits="userSpaceOnUse" x1="345" y1="375.8457" x2="345" y2="375.8457" gradientTransform="matrix(1 0 0 -1 0 868.6456)">
							<stop  offset="2.828752e-02" style="stop-color:#005894"/>
							<stop  offset="0.2101" style="stop-color:#0E5F9A"/>
							<stop  offset="0.6449" style="stop-color:#4EB2E7"/>
							<stop  offset="0.785" style="stop-color:#49B8EE"/>
							<stop  offset="0.8913" style="stop-color:#3FC6FF"/>
						</linearGradient>
						<path class="st12" d="M345,492.8"/>
						
							<linearGradient id="SVGID_13_" gradientUnits="userSpaceOnUse" x1="345" y1="375.8457" x2="345" y2="375.8457" gradientTransform="matrix(1 0 0 -1 0 868.6456)">
							<stop  offset="2.828752e-02" style="stop-color:#005894"/>
							<stop  offset="0.2101" style="stop-color:#0E5F9A"/>
							<stop  offset="0.6449" style="stop-color:#4EB2E7"/>
							<stop  offset="0.785" style="stop-color:#49B8EE"/>
							<stop  offset="0.8913" style="stop-color:#3FC6FF"/>
						</linearGradient>
						<path class="st13" d="M345,492.8"/>
					</g>
					<g>
						
							<linearGradient id="SVGID_14_" gradientUnits="userSpaceOnUse" x1="308.0179" y1="747.321" x2="427.5004" y2="540.3711" gradientTransform="matrix(1.0877 4.228805e-02 -4.228805e-02 -1.0995 70.186 1121.5063)">
							<stop  offset="2.828752e-02" style="stop-color:#005894"/>
							<stop  offset="0.2101" style="stop-color:#0E5F9A"/>
							<stop  offset="0.6449" style="stop-color:#4EB2E7"/>
							<stop  offset="0.785" style="stop-color:#49B8EE"/>
							<stop  offset="0.8913" style="stop-color:#3FC6FF"/>
						</linearGradient>
						<path class="st14" d="M370,327.5c-4.3,3.3-10.9,9-14.5,12.9c0,0-11,10.9-16.1,21.8c-3.4,7.1-5.4,14.6-6.8,22.3
							c-4.1,27.5,4.6,58.6,25.5,85.8c3.4,4.5,7.3,9,11.4,13.3c0.6,0.7,1.3,1.3,1.9,2l0,0c0.1-0.1,4.1,3.7,8.6,8.4l71.3,73.7
							c4.6,4.7,11.8,5.9,16.1,2.7l84-65.3c4.3-3.3,3.9-9.9-0.7-14.6l-71.4-73.8c-4.6-4.7-4.9-11.3-0.7-14.6l34.4-26.7
							c4.3-3.3,3.9-9.9-0.7-14.6L441.1,287c-4.6-4.7-11.8-5.9-16.1-2.7l-55.3,42.9L370,327.5L370,327.5z M482.6,358.5
							c4.6,4.7,4.9,11.3,0.7,14.6l-68,52.8c-4.3,3.3-4.5,9.3-0.6,13.4c3.9,4,10.6,4.7,14.8,1.4l18.1-14.1c4.3-3.3,11.5-2.1,16.1,2.7
							l57.6,59.5c4.6,4.7,4.9,11.3,0.7,14.6l-51.8,40.3c-4.3,3.3-11.5,2.1-16.1-2.7l-57.7-59.6c-4.6-4.7-12-12.6-16.2-17.5
							c0,0-1.3-1.3-5-6.8C363.7,441,357,423.6,355,406.6c-1.1-9.6-0.7-18.9,1.3-28c1.5-7.4,3.8-12.2,3.8-12.2
							c2.3-4.8,4.1-8.9,4.1-8.9s3.5-2.7,7.7-6l51.8-40.3c4.3-3.3,11.5-2.1,16.1,2.7L482.6,358.5L482.6,358.5L482.6,358.5z"/>
						
							<linearGradient id="SVGID_15_" gradientUnits="userSpaceOnUse" x1="308.0179" y1="747.321" x2="427.5004" y2="540.3711" gradientTransform="matrix(1.0877 4.228805e-02 -4.228805e-02 -1.0995 70.186 1121.5063)">
							<stop  offset="2.828752e-02" style="stop-color:#005894"/>
							<stop  offset="0.2101" style="stop-color:#0E5F9A"/>
							<stop  offset="0.6449" style="stop-color:#4EB2E7"/>
							<stop  offset="0.785" style="stop-color:#49B8EE"/>
							<stop  offset="0.8913" style="stop-color:#3FC6FF"/>
						</linearGradient>
						<path class="st15" d="M370,327.5c-4.3,3.3-10.9,9-14.5,12.9c0,0-11,10.9-16.1,21.8c-3.4,7.1-5.4,14.6-6.8,22.3
							c-4.1,27.5,4.6,58.6,25.5,85.8c3.4,4.5,7.3,9,11.4,13.3c0.6,0.7,1.3,1.3,1.9,2l0,0c0.1-0.1,4.1,3.7,8.6,8.4l71.3,73.7
							c4.6,4.7,11.8,5.9,16.1,2.7l84-65.3c4.3-3.3,3.9-9.9-0.7-14.6l-71.4-73.8c-4.6-4.7-4.9-11.3-0.7-14.6l34.4-26.7
							c4.3-3.3,3.9-9.9-0.7-14.6L441.1,287c-4.6-4.7-11.8-5.9-16.1-2.7l-55.3,42.9L370,327.5L370,327.5z M482.6,358.5
							c4.6,4.7,4.9,11.3,0.7,14.6l-68,52.8c-4.3,3.3-4.5,9.3-0.6,13.4c3.9,4,10.6,4.7,14.8,1.4l18.1-14.1c4.3-3.3,11.5-2.1,16.1,2.7
							l57.6,59.5c4.6,4.7,4.9,11.3,0.7,14.6l-51.8,40.3c-4.3,3.3-11.5,2.1-16.1-2.7l-57.7-59.6c-4.6-4.7-12-12.6-16.2-17.5
							c0,0-1.3-1.3-5-6.8C363.7,441,357,423.6,355,406.6c-1.1-9.6-0.7-18.9,1.3-28c1.5-7.4,3.8-12.2,3.8-12.2
							c2.3-4.8,4.1-8.9,4.1-8.9s3.5-2.7,7.7-6l51.8-40.3c4.3-3.3,11.5-2.1,16.1,2.7L482.6,358.5L482.6,358.5L482.6,358.5z"/>
					</g>
					<g>
						
							<linearGradient id="SVGID_16_" gradientUnits="userSpaceOnUse" x1="-402.4673" y1="1072.3879" x2="-327.4068" y2="942.3795" gradientTransform="matrix(0.6832 -0.5945 -0.6145 -0.7062 1153.4509 959.3506)">
							<stop  offset="2.828752e-02" style="stop-color:#005894"/>
							<stop  offset="0.2101" style="stop-color:#0E5F9A"/>
							<stop  offset="0.6449" style="stop-color:#4EB2E7"/>
							<stop  offset="0.785" style="stop-color:#49B8EE"/>
							<stop  offset="0.8913" style="stop-color:#3FC6FF"/>
						</linearGradient>
						<path class="st16" d="M289.7,400.8c2.9,2.2,4.3,6,3.7,9.3c-0.4,3.8-3.4,5.5-4.2,5.7l-38.5,29.9c-4.3,3.3-3.9,9.9,0.7,14.6
							l42.9,44.4c4.6,4.7,11.8,5.9,16.1,2.7l18.2-14.1c4.3-3.3,10.9-2.7,14.8,1.4c3.9,4,3.7,10.1-0.6,13.4l-34.4,26.7
							c-4.3,3.3-11.5,2.1-16.1-2.7l-71.5-73.9c-4.6-4.7-4.9-11.3-0.7-14.6l53.3-41.4C278,397.3,285.4,397.5,289.7,400.8z"/>
						
							<linearGradient id="SVGID_17_" gradientUnits="userSpaceOnUse" x1="-402.2541" y1="1072.2358" x2="-327.1802" y2="942.2041" gradientTransform="matrix(0.6832 -0.5945 -0.6145 -0.7062 1153.4509 959.3506)">
							<stop  offset="2.828752e-02" style="stop-color:#005894"/>
							<stop  offset="0.2101" style="stop-color:#0E5F9A"/>
							<stop  offset="0.6449" style="stop-color:#4EB2E7"/>
							<stop  offset="0.785" style="stop-color:#49B8EE"/>
							<stop  offset="0.8913" style="stop-color:#3FC6FF"/>
						</linearGradient>
						<path class="st17" d="M289.9,400.8c2.9,2.2,4.1,6.3,3.6,9.3c-0.6,3.4-3.5,5.1-4.2,5.7c-5.7,3.8-19.6,14.7-38.5,29.9
							c-4.3,3.3-3.9,9.9,0.7,14.6l42.9,44.4c4.6,4.7,11.8,5.9,16.1,2.7l18.2-14.1c4.3-3.3,10.9-2.7,14.8,1.4
							c3.9,4,3.7,10.1-0.6,13.4l-34.4,26.7c-0.5,0.4-4.2,2.7-9.2,1.4c-3.5-1-6-3.2-6.8-4L221,458.3c-4.6-4.7-4.9-11.3-0.7-14.6
							l53.2-41.4C278.3,397.3,285.8,397.4,289.9,400.8z"/>
					</g>
					<g>
						
							<linearGradient id="SVGID_18_" gradientUnits="userSpaceOnUse" x1="315.4" y1="488.0457" x2="315.4" y2="488.0457" gradientTransform="matrix(1 0 0 -1 0 868.6456)">
							<stop  offset="2.828752e-02" style="stop-color:#005894"/>
							<stop  offset="0.2101" style="stop-color:#0E5F9A"/>
							<stop  offset="0.6449" style="stop-color:#4EB2E7"/>
							<stop  offset="0.785" style="stop-color:#49B8EE"/>
							<stop  offset="0.8913" style="stop-color:#3FC6FF"/>
						</linearGradient>
						<path class="st18" d="M315.4,380.6"/>
						
							<linearGradient id="SVGID_19_" gradientUnits="userSpaceOnUse" x1="315.4" y1="488.0457" x2="315.4" y2="488.0457" gradientTransform="matrix(1 0 0 -1 0 868.6456)">
							<stop  offset="2.828752e-02" style="stop-color:#005894"/>
							<stop  offset="0.2101" style="stop-color:#0E5F9A"/>
							<stop  offset="0.6449" style="stop-color:#4EB2E7"/>
							<stop  offset="0.785" style="stop-color:#49B8EE"/>
							<stop  offset="0.8913" style="stop-color:#3FC6FF"/>
						</linearGradient>
						<path class="st19" d="M315.4,380.6"/>
					</g>
					<g>
						
							<linearGradient id="SVGID_20_" gradientUnits="userSpaceOnUse" x1="237.8" y1="410.7457" x2="237.8" y2="410.7457" gradientTransform="matrix(1 0 0 -1 0 868.6456)">
							<stop  offset="2.828752e-02" style="stop-color:#005894"/>
							<stop  offset="0.2101" style="stop-color:#0E5F9A"/>
							<stop  offset="0.6449" style="stop-color:#4EB2E7"/>
							<stop  offset="0.785" style="stop-color:#49B8EE"/>
							<stop  offset="0.8913" style="stop-color:#3FC6FF"/>
						</linearGradient>
						<path class="st20" d="M237.8,457.9"/>
						
							<linearGradient id="SVGID_21_" gradientUnits="userSpaceOnUse" x1="237.8" y1="410.7457" x2="237.8" y2="410.7457" gradientTransform="matrix(1 0 0 -1 0 868.6456)">
							<stop  offset="2.828752e-02" style="stop-color:#005894"/>
							<stop  offset="0.2101" style="stop-color:#0E5F9A"/>
							<stop  offset="0.6449" style="stop-color:#4EB2E7"/>
							<stop  offset="0.785" style="stop-color:#49B8EE"/>
							<stop  offset="0.8913" style="stop-color:#3FC6FF"/>
						</linearGradient>
						<path class="st21" d="M237.8,457.9"/>
					</g>
					
						<linearGradient id="SVGID_22_" gradientUnits="userSpaceOnUse" x1="318.9" y1="415.7457" x2="318.9" y2="415.7457" gradientTransform="matrix(1 0 0 -1 0 868.6456)">
						<stop  offset="2.828752e-02" style="stop-color:#005894"/>
						<stop  offset="0.2101" style="stop-color:#0E5F9A"/>
						<stop  offset="0.6449" style="stop-color:#4EB2E7"/>
						<stop  offset="0.785" style="stop-color:#49B8EE"/>
						<stop  offset="0.8913" style="stop-color:#3FC6FF"/>
					</linearGradient>
					<path class="st22" d="M318.9,452.9"/>
				</g>
			</g>
		</g>
	</g>
</g>
<g>
	<g>
		<g>
			<g>
				
					<linearGradient id="SVGID_23_" gradientUnits="userSpaceOnUse" x1="-550.7173" y1="1167.3245" x2="-350.3031" y2="820.1969" gradientTransform="matrix(0.7618 -0.6629 -0.6847 -0.7868 1323.5776 1130.8718)">
					<stop  offset="2.828752e-02" style="stop-color:#005894"/>
					<stop  offset="0.2101" style="stop-color:#0E5F9A"/>
					<stop  offset="0.6449" style="stop-color:#4EB2E7"/>
					<stop  offset="0.785" style="stop-color:#49B8EE"/>
					<stop  offset="0.8913" style="stop-color:#3FC6FF"/>
				</linearGradient>
				<path class="st23" d="M479.4,765.7L412.1,818c-49.2-38.2-102.7-84.6-156.6-140.3c-53.5-55.3-96.9-109-131.8-157.9
					c8.2-6.4,19.2-13.6,33.1-20.4c14-7,30.4-13,48.4-15.9c24.4,41.7,60.3,94.4,112.6,149.3C375.5,693.5,433.9,736.6,479.4,765.7z"/>
			</g>
		</g>
	</g>
</g>
<g>
	<g>
		<g>
			<g>
				
					<linearGradient id="SVGID_24_" gradientUnits="userSpaceOnUse" x1="-147.8435" y1="978.3675" x2="-29.4107" y2="773.2359" gradientTransform="matrix(0.7618 -0.6629 -0.6847 -0.7868 1323.5776 1130.8718)">
					<stop  offset="2.828752e-02" style="stop-color:#005894"/>
					<stop  offset="0.2101" style="stop-color:#0E5F9A"/>
					<stop  offset="0.6449" style="stop-color:#4EB2E7"/>
					<stop  offset="0.785" style="stop-color:#49B8EE"/>
					<stop  offset="0.8913" style="stop-color:#3FC6FF"/>
				</linearGradient>
				<path class="st24" d="M792.3,261c3.8,6.6,7.1,13.3,10.1,20.2c14.6,34.5,19,72.9,13.7,112.2c-1.6,10.4-3.6,20.9-6.4,31.2
					c0,0.1-0.2,0.4-0.1,0.6c-7.3,27.3-19.2,54.7-35.4,81.2c-4.3,7-23.8,39-61.5,75.7c-25,24.5-45.6,38.9-66.2,53.8
					c-31.4,23-76.5,56.7-131.8,102.1c-15.6-8.3-35.3-22.3-50.6-44.3c21.3-17.5,54.7-44.1,96.9-75.4c81.7-60.6,88.1-61.4,111.5-85.6
					c27.9-28.7,90.5-93.3,74.3-172.6c-4.4-21.6-13.5-38.8-20.8-50.3c2-6.4,8.8-24.4,28.9-37C769.5,263.6,784.6,261.6,792.3,261z"/>
			</g>
		</g>
	</g>
</g>
<g>
	<g>
		<g>
			<g>
				
					<linearGradient id="SVGID_25_" gradientUnits="userSpaceOnUse" x1="-315.2097" y1="1399.1746" x2="-46.6512" y2="934.0175" gradientTransform="matrix(0.7618 -0.6629 -0.6847 -0.7868 1323.5776 1130.8718)">
					<stop  offset="2.828752e-02" style="stop-color:#005894"/>
					<stop  offset="0.2101" style="stop-color:#0E5F9A"/>
					<stop  offset="0.6449" style="stop-color:#4EB2E7"/>
					<stop  offset="0.785" style="stop-color:#49B8EE"/>
					<stop  offset="0.8913" style="stop-color:#3FC6FF"/>
				</linearGradient>
				<path class="st25" d="M725,193.6c-1.6,5.7-6.6,20.1-21.9,32.9c-17.6,14.6-37.4,17.3-43.3,17.9c-17.5-11.6-42.6-24.8-74.4-31.4
					c-98.8-20.4-173.1,42.1-182.9,50.7c0.1,0.1,0.1,0.1,0.1,0.1c-100,77.9-200.1,155.9-300,233.8c-6.3-2.6-17.1-7.9-27.4-17.9
					c-12-11.7-16.9-23.8-18.9-30c150.5-115.9,210.8-163.2,230-178.8c3.4-2.7,16.4-13.6,35-27.2c14.1-10.3,27.9-20.2,36.6-25.7
					c58.7-36.9,123.3-58.1,185.4-63.5c0.2,0,0.6,0,0.8-0.1c23.2-2.9,63.7-4.8,111.6,8.9C685,171.7,708.5,183.5,725,193.6z"/>
				
					<linearGradient id="SVGID_26_" gradientUnits="userSpaceOnUse" x1="119.4" y1="411.5457" x2="119.4" y2="411.5457" gradientTransform="matrix(1 0 0 -1 0 868.6456)">
					<stop  offset="2.828752e-02" style="stop-color:#005894"/>
					<stop  offset="0.2101" style="stop-color:#0E5F9A"/>
					<stop  offset="0.6449" style="stop-color:#4EB2E7"/>
					<stop  offset="0.785" style="stop-color:#49B8EE"/>
					<stop  offset="0.8913" style="stop-color:#3FC6FF"/>
				</linearGradient>
				<path class="st26" d="M119.4,457.1"/>
			</g>
		</g>
	</g>
</g>
<g class="st27">
	<g>
		<line class="st28" x1="389.8" y1="512.1" x2="321.1" y2="566.9"/>
	</g>
</g>
<g class="st29">
	<g>
		<line class="st28" x1="394.7" y1="326.2" x2="447.2" y2="380.4"/>
	</g>
</g>
<line class="st28" x1="579.4" y1="517.1" x2="620.9" y2="560"/>
<g>
	<g>
		
			<linearGradient id="SVGID_27_" gradientUnits="userSpaceOnUse" x1="-55.5558" y1="1063.7506" x2="-5.0813" y2="976.3264" gradientTransform="matrix(0.7618 -0.6629 -0.6847 -0.7868 1323.5776 1130.8718)">
			<stop  offset="2.828752e-02" style="stop-color:#005894"/>
			<stop  offset="0.2101" style="stop-color:#0E5F9A"/>
			<stop  offset="0.6449" style="stop-color:#4EB2E7"/>
			<stop  offset="0.785" style="stop-color:#49B8EE"/>
			<stop  offset="0.8913" style="stop-color:#3FC6FF"/>
		</linearGradient>
		<path class="st30" d="M577.8,323.3c32.8-25.5,70.3-35,83.7-21.1s-2.3,45.8-35.2,71.3c-32.8,25.5-70.3,35-83.7,21.1
			C529.2,380.8,544.9,348.9,577.8,323.3z"/>
		<g>
			<g>
				
					<linearGradient id="SVGID_28_" gradientUnits="userSpaceOnUse" x1="-55.5558" y1="1063.7506" x2="-5.0813" y2="976.3264" gradientTransform="matrix(0.7618 -0.6629 -0.6847 -0.7868 1323.5776 1130.8718)">
					<stop  offset="2.828752e-02" style="stop-color:#005894"/>
					<stop  offset="0.2101" style="stop-color:#0E5F9A"/>
					<stop  offset="0.6449" style="stop-color:#4EB2E7"/>
					<stop  offset="0.785" style="stop-color:#49B8EE"/>
					<stop  offset="0.8913" style="stop-color:#3FC6FF"/>
				</linearGradient>
				<path class="st31" d="M577.8,323.3c32.8-25.5,70.3-35,83.7-21.1s-2.3,45.8-35.2,71.3c-32.8,25.5-70.3,35-83.7,21.1
					C529.2,380.8,544.9,348.9,577.8,323.3z"/>
			</g>
		</g>
	</g>
</g>
<g class="st27">
	<g>
		<line class="st28" x1="667.6" y1="297.5" x2="724.5" y2="253.3"/>
	</g>
</g>
<g>
	<g>
		<g>
			<g>
				
					<linearGradient id="SVGID_29_" gradientUnits="userSpaceOnUse" x1="189.9453" y1="1057.068" x2="395.6462" y2="700.7835" gradientTransform="matrix(0.7618 -0.6629 -0.6847 -0.7868 1323.5776 1130.8718)">
					<stop  offset="2.828752e-02" style="stop-color:#005894"/>
					<stop  offset="0.2101" style="stop-color:#0E5F9A"/>
					<stop  offset="0.6449" style="stop-color:#4EB2E7"/>
					<stop  offset="0.785" style="stop-color:#49B8EE"/>
					<stop  offset="0.8913" style="stop-color:#3FC6FF"/>
				</linearGradient>
				<path class="st32" d="M989.7,68c-33.4,2.9-66.9,15.3-94.8,37L723.1,238.5c5.3,7.5,11.9,14.7,20.1,21.1L915.1,126
					c54.2-42.1,133.5-39.6,177.1,5.5s35,115.9-19.1,158c-19.5,15.1-34.3,33.2-44.1,52.6c-22.7,44.5-19.6,95.9,11.2,135.4
					c2.8,3.6,5.9,7,9.1,10.4c2.9,3,6.1,6,9.2,8.7c12.2-3.1,23.2-8,32.5-14.3c-5.9-4-11.4-8.8-16.5-14.1c-3.3-3.4-6.1-6.9-9-10.5
					c-33.3-45-22.3-108.5,27.9-147.6c19.5-15.1,34.3-33.2,44.1-52.6c24.7-48.4,18.8-105.3-20.2-145.7
					C1084.9,78.5,1037.1,63.8,989.7,68z"/>
			</g>
		</g>
	</g>
</g>
<linearGradient id="SVGID_30_" gradientUnits="userSpaceOnUse" x1="233.2835" y1="898.4854" x2="233.2835" y2="898.4854" gradientTransform="matrix(0.7618 -0.6629 -0.6847 -0.7868 1323.5776 1130.8718)">
	<stop  offset="2.828752e-02" style="stop-color:#005894"/>
	<stop  offset="0.2101" style="stop-color:#0E5F9A"/>
	<stop  offset="0.6449" style="stop-color:#4EB2E7"/>
	<stop  offset="0.785" style="stop-color:#49B8EE"/>
	<stop  offset="0.8913" style="stop-color:#3FC6FF"/>
</linearGradient>
<path class="st33" d="M886.1,269.3"/>
<linearGradient id="SVGID_31_" gradientUnits="userSpaceOnUse" x1="172.5217" y1="2523.3735" x2="172.5217" y2="2523.3735" gradientTransform="matrix(0.7618 -0.6629 0.6847 0.7868 -947.481 -1478.8258)">
	<stop  offset="2.828752e-02" style="stop-color:#005894"/>
	<stop  offset="0.2101" style="stop-color:#0E5F9A"/>
	<stop  offset="0.6449" style="stop-color:#4EB2E7"/>
	<stop  offset="0.785" style="stop-color:#49B8EE"/>
	<stop  offset="0.8913" style="stop-color:#3FC6FF"/>
</linearGradient>
<path class="st34" d="M911.7,392.2"/>
<linearGradient id="SVGID_32_" gradientUnits="userSpaceOnUse" x1="-1.186" y1="2310.04" x2="-1.186" y2="2310.04" gradientTransform="matrix(0.7618 -0.6629 0.6847 0.7868 -947.481 -1478.8258)">
	<stop  offset="2.828752e-02" style="stop-color:#005894"/>
	<stop  offset="0.2101" style="stop-color:#0E5F9A"/>
	<stop  offset="0.6449" style="stop-color:#4EB2E7"/>
	<stop  offset="0.785" style="stop-color:#49B8EE"/>
	<stop  offset="0.8913" style="stop-color:#3FC6FF"/>
</linearGradient>
<path class="st35" d="M633.3,339.5"/>
<linearGradient id="SVGID_33_" gradientUnits="userSpaceOnUse" x1="102.6902" y1="2702.7188" x2="102.6902" y2="2702.7188" gradientTransform="matrix(0.7618 -0.6629 0.6847 0.7868 -947.481 -1478.8258)">
	<stop  offset="2.828752e-02" style="stop-color:#005894"/>
	<stop  offset="0.2101" style="stop-color:#0E5F9A"/>
	<stop  offset="0.6449" style="stop-color:#4EB2E7"/>
	<stop  offset="0.785" style="stop-color:#49B8EE"/>
	<stop  offset="0.8913" style="stop-color:#3FC6FF"/>
</linearGradient>
<path class="st36" d="M981.3,579.6"/>
<linearGradient id="SVGID_34_" gradientUnits="userSpaceOnUse" x1="143.5223" y1="2753.3892" x2="143.5223" y2="2753.3892" gradientTransform="matrix(0.7618 -0.6629 0.6847 0.7868 -947.481 -1478.8258)">
	<stop  offset="2.828752e-02" style="stop-color:#005894"/>
	<stop  offset="0.2101" style="stop-color:#0E5F9A"/>
	<stop  offset="0.6449" style="stop-color:#4EB2E7"/>
	<stop  offset="0.785" style="stop-color:#49B8EE"/>
	<stop  offset="0.8913" style="stop-color:#3FC6FF"/>
</linearGradient>
<path class="st37" d="M1047.1,592.4"/>
<linearGradient id="SVGID_35_" gradientUnits="userSpaceOnUse" x1="-257.3682" y1="2188.76" x2="-257.3682" y2="2188.76" gradientTransform="matrix(0.7618 -0.6629 0.6847 0.7868 -947.481 -1478.8258)">
	<stop  offset="2.828752e-02" style="stop-color:#005894"/>
	<stop  offset="0.2101" style="stop-color:#0E5F9A"/>
	<stop  offset="0.6449" style="stop-color:#4EB2E7"/>
	<stop  offset="0.785" style="stop-color:#49B8EE"/>
	<stop  offset="0.8913" style="stop-color:#3FC6FF"/>
</linearGradient>
<path class="st38" d="M355.1,413.9"/>
<g>
	<g>
		<text transform="matrix(0.4919 2.936941e-03 1.700000e-03 1 723.3259 817.9932)" class="st39 st40 st41">DEV &amp; TICS</text>
		<text transform="matrix(0.4919 2.936941e-03 1.700000e-03 1 723.3259 817.9932)" class="st42 st40 st41">DEV &amp; TICS</text>
	</g>
</g>
</svg>
